Coordinates
version=1
nRows=17
nColumns=34
inDegrees=yes

Units are S.I. units (second, meters, Newtons, ...)
If the header above contains a line with 'inDegrees', this indicates whether rotational values are in degrees (yes) or radians (no).

endheader
time	pelvis_tilt	pelvis_list	pelvis_rotation	pelvis_tx	pelvis_ty	pelvis_tz	hip_flexion_r	hip_adduction_r	hip_rotation_r	knee_angle_r	ankle_angle_r	subtalar_angle_r	mtp_angle_r	hip_flexion_l	hip_adduction_l	hip_rotation_l	knee_angle_l	ankle_angle_l	subtalar_angle_l	mtp_angle_l	lumbar_extension	lumbar_bending	lumbar_rotation	arm_flex_r	arm_add_r	arm_rot_r	elbow_flex_r	pro_sup_r	arm_flex_l	arm_add_l	arm_rot_l	elbow_flex_l	pro_sup_l
      6.73333330	      0.44804145	     -3.68786585	     -6.39742629	      0.02657888	      0.79873568	     -0.18972564	     39.54806916	     -7.27418373	     -6.89565675	      0.00000000	      0.38337412	     12.15625240	      0.00000000	     34.05088178	      3.40085471	     -0.02002081	     66.48366297	     38.19533913	     -8.05188272	      0.00000000	    -24.17880312	     -0.51292653	      5.16607638	     46.42088015	      9.08381219	     60.19880228	    124.43717057	     97.60174900	     68.91389592	     10.94820324	     79.25002845	    123.99254563	     64.48851306
      6.75000000	      0.22367968	     -3.89015101	     -6.75724483	      0.02786283	      0.79391909	     -0.18970922	     38.93376281	     -6.87270341	     -8.17569816	      0.00000000	      2.14433153	     10.57364506	      0.00000000	     34.69869531	      3.09737630	     -0.00676050	     66.81703896	     37.89035089	     -8.08436851	      0.00000000	    -24.64950000	     -0.27975773	      5.49958770	     46.26723031	      9.13220180	     60.44111113	    124.53484414	     97.65850868	     68.85312597	     10.80886233	     79.40755540	    124.31207126	     64.56442965
      6.76666670	     -0.21682682	     -3.52400536	     -6.14724477	      0.02837693	      0.79259404	     -0.19049971	     38.91352350	     -7.58625847	     -8.81550527	      0.00000000	      2.68425295	      8.67727439	      0.00000000	     35.49645274	      3.81629907	      0.41414031	     67.44027081	     39.58301409	     -7.52754448	      0.00000000	    -24.94699306	     -0.44506412	      5.29435728	     46.31454591	      9.12859917	     61.19962835	    125.15890048	     97.87278533	     69.03250098	     10.90613233	     79.95465733	    124.82696886	     64.79168728
      6.78333330	     -0.68652058	     -3.23699227	     -6.09426784	      0.02713108	      0.78549979	     -0.18976069	     39.34603629	     -7.91508926	     -8.73985259	      0.00000000	      2.77810321	      7.67533003	      0.00000000	     36.48861851	      4.08765636	      0.32717308	     68.46110304	     39.80699891	     -7.22010695	      0.00000000	    -25.04480232	     -0.95038130	      5.56041998	     46.50947610	      9.00860740	     61.39357990	    125.32804808	     98.09796570	     69.21384559	     11.45224202	     80.58865211	    125.44638927	     65.04582743
      6.80000000	     -1.04022102	     -2.29459047	     -5.05140042	      0.02803281	      0.78164102	     -0.18817850	     40.48689034	     -9.06104217	     -7.59441020	      0.00000000	      1.14832858	     11.42377592	      0.00000000	     37.39406352	      5.29791034	      0.36470973	     69.32255103	     40.19461721	     -7.46090204	      0.00000000	    -25.07239734	     -2.37898850	      4.91512989	     46.71003851	      9.04923732	     61.38398267	    126.10394314	     98.50236484	     69.60475138	     12.15959416	     81.44508683	    125.48035214	     65.29503421
      6.81666670	     -0.60245887	     -2.99597247	     -5.29317865	      0.02699281	      0.78193551	     -0.18913021	     39.21628309	     -8.36920435	     -7.63531345	      0.00000000	      0.92618917	     10.13878945	      0.00000000	     36.83672598	      4.65817133	      0.74432479	     69.47031820	     38.66221401	     -7.99792486	      0.00000000	    -26.04290628	     -1.70037219	      5.46454177	     47.50387106	      8.86684811	     62.23784886	    126.32051176	     98.76863818	     70.02888525	     12.14244963	     81.18126359	    125.52340765	     65.41298587
      6.83333330	     -0.87859759	     -2.53553947	     -4.98117450	      0.03056458	      0.78191720	     -0.18899166	     39.22155754	     -8.87727045	     -7.59258124	      0.00000000	      0.84150684	     10.13710898	      0.00000000	     36.98038011	      5.38997169	      0.93179122	     69.40584756	     39.48517814	     -8.05586442	      0.00000000	    -26.21923984	     -2.21136888	      5.36680802	     47.41378434	      8.87089321	     62.56153433	    126.25789281	     98.85088713	     70.12591240	     12.32282884	     81.54594873	    125.70470538	     65.46343954
      6.85000000	     -0.84731982	     -2.15304488	     -4.24611352	      0.03101118	      0.77841336	     -0.18849944	     39.24132531	     -9.55726098	     -6.75542133	      0.00000000	     -0.06981067	     11.45237066	      0.00000000	     37.18355913	      6.08514067	      1.18326773	     70.00105092	     40.07227047	     -7.92562776	      0.00000000	    -26.41786410	     -2.73478865	      4.64695629	     47.13713680	      8.93539908	     63.19686245	    126.63802179	     99.02597007	     70.46873909	     12.22014512	     82.14438645	    125.56903443	     65.51793777
      6.86666670	     -0.78060104	     -2.48321864	     -4.95277580	      0.03448882	      0.77467952	     -0.18845770	     38.71534665	     -8.90449467	     -6.97617865	      0.00000000	      0.26635647	     11.34642207	      0.00000000	     37.16081350	      5.48704130	      0.94959142	     70.62405633	     39.20436908	     -8.04593077	      0.00000000	    -26.47897034	     -2.62121734	      4.90292388	     47.17348381	      9.01601211	     63.79020509	    126.69328666	     99.15517031	     70.34190119	     11.92268410	     82.43295748	    125.55175941	     65.54557172
      6.88333330	     -1.39690650	     -1.11370759	     -3.34607065	      0.03083667	      0.76960926	     -0.18806856	     40.42318549	    -10.78754956	     -5.75742765	      0.00000000	     -1.94564192	     15.62506447	      0.00000000	     38.70758771	      7.69958781	      1.16413362	     71.60367674	     39.92264116	     -9.31412482	      0.00000000	    -26.40762722	     -4.01879324	      3.24638261	     47.27172178	      9.28442219	     64.57485292	    127.32866640	     99.62793839	     70.87085401	     11.96891850	     83.24258309	    125.81362615	     65.62255762
      6.90000000	     -1.04570051	     -2.13273404	     -3.51414656	      0.03188417	      0.76697693	     -0.18870095	     39.76816133	     -9.96083450	     -5.55899355	      0.00000000	     -2.40300884	     15.54727254	      0.00000000	     38.64677242	      6.89692086	      1.99577894	     72.06652728	     38.38649440	    -10.26933616	      0.00000000	    -27.15359858	     -2.80888141	      3.69323802	     47.97878678	      9.02486047	     64.78281415	    127.14230472	     99.93732471	     70.98474801	     11.91887885	     82.73896286	    125.80681551	     65.62836330
      6.91666670	     -1.46423724	     -1.57614876	     -2.75058204	      0.03236303	      0.76474157	     -0.18846089	     40.59509033	    -10.79222056	     -4.79934918	      0.00000000	     -3.24267945	     16.76698319	      0.00000000	     39.43658705	      8.02205767	      2.20848385	     72.79385251	     39.66739467	    -10.98386924	      0.00000000	    -27.52369360	     -3.21149363	      3.17373119	     48.38916792	      9.06613818	     64.62786159	    127.27324084	    100.07003570	     71.36627497	     11.93930695	     82.78358335	    125.96849425	     65.66245903
      6.93333330	     -1.77298267	     -1.53979013	     -2.61806035	      0.02957006	      0.76200145	     -0.18883685	     41.18806303	    -10.96246822	     -4.09345960	      0.00000000	     -4.03845513	     17.79650550	      0.00000000	     40.00447468	      8.19912175	      2.29022140	     73.24000888	     39.19473438	    -11.18771525	      0.00000000	    -27.75189331	     -3.20824122	      3.01789381	     48.79590551	      9.08358299	     64.26077376	    127.31934104	    100.21464607	     71.64952911	     11.72627176	     82.75660907	    126.05164616	     65.69191229
      6.95000000	     -2.03453163	     -1.69643131	     -2.78795999	      0.03359443	      0.76180769	     -0.18869279	     41.18838499	    -10.82311192	     -3.64544367	      0.00000000	     -3.87435573	     18.26247312	      0.00000000	     40.28998801	      8.09168513	      2.46446644	     73.36713053	     38.90588096	    -11.78784523	      0.00000000	    -27.89968387	     -3.01803061	      3.27780737	     48.86247410	      9.04363461	     64.44427359	    127.18342238	    100.45133610	     71.26160362	     11.71088681	     83.17551034	    126.28243380	     65.76812588
      6.96666670	     -2.44784244	     -2.04074361	     -3.46667725	      0.03093338	      0.76024481	     -0.18890929	     41.22245599	    -10.24497792	     -3.65697903	      0.00000000	     -3.31888474	     17.77892879	      0.00000000	     40.81213728	      7.49959855	      2.33218038	     73.44254628	     38.37290248	    -11.86378632	      0.00000000	    -28.14393129	     -2.69272856	      3.87765132	     49.23039800	      9.01750600	     64.74735548	    127.10970191	    100.62053431	     71.21197972	     11.68564605	     83.42212337	    126.43205861	     65.84022734
      6.98333330	     -2.58299613	     -2.00014722	     -3.46162249	      0.03218476	      0.76039846	     -0.18912138	     41.44310900	    -10.33932803	     -3.67713210	      0.00000000	     -3.33232110	     17.74164681	      0.00000000	     41.03605957	      7.61608833	      2.33142190	     73.59905332	     38.47179790	    -11.90336095	      0.00000000	    -28.61645019	     -2.73842226	      3.95457604	     49.23193614	      8.95445342	     64.77131473	    127.06232218	    100.63259966	     71.13115290	     11.59282214	     83.46613114	    126.40617321	     65.84612575
      7.00000000	     -3.40027892	     -1.29644091	     -3.09311410	      0.03248375	      0.75849905	     -0.18875194	     42.68546955	    -11.13161361	     -2.80513644	      0.00000000	     -4.23684843	     18.01422045	      0.00000000	     42.18347182	      8.42573495	      2.00216957	     73.75165518	     39.37611255	    -12.18745038	      0.00000000	    -28.25600162	     -3.47032901	      3.85463116	     49.36818534	      8.83879915	     65.95184763	    127.40233148	    101.09199180	     71.19617940	     11.93640146	     84.55689377	    126.71913410	     66.10946337
